<?xml version="1.0" encoding="UTF-8"?>
<svg width="85px" height="71px" viewBox="0 0 85 71" version="1.1" xmlns="http://www.w3.org/2000/svg" xmlns:xlink="http://www.w3.org/1999/xlink">
    <!-- Generator: Sketch 43.2 (39069) - http://www.bohemiancoding.com/sketch -->
    <title>promo-warmed-up-leads-icon</title>
    <desc>Created with Sketch.</desc>
    <defs>
        <filter x="-3.9%" y="-2.4%" width="107.8%" height="109.5%" filterUnits="objectBoundingBox" id="filter-1">
            <feOffset dx="0" dy="1" in="SourceAlpha" result="shadowOffsetOuter1"></feOffset>
            <feGaussianBlur stdDeviation="0.5" in="shadowOffsetOuter1" result="shadowBlurOuter1"></feGaussianBlur>
            <feColorMatrix values="0 0 0 0 0   0 0 0 0 0   0 0 0 0 0  0 0 0 0.25 0" type="matrix" in="shadowBlurOuter1" result="shadowMatrixOuter1"></feColorMatrix>
            <feMerge>
                <feMergeNode in="shadowMatrixOuter1"></feMergeNode>
                <feMergeNode in="SourceGraphic"></feMergeNode>
            </feMerge>
        </filter>
        <ellipse id="path-2" cx="20.4128475" cy="20.25" rx="20.4128475" ry="20.25"></ellipse>
        <filter x="-4.3%" y="-2.6%" width="108.7%" height="110.5%" filterUnits="objectBoundingBox" id="filter-4">
            <feOffset dx="0" dy="1" in="SourceAlpha" result="shadowOffsetOuter1"></feOffset>
            <feGaussianBlur stdDeviation="0.5" in="shadowOffsetOuter1" result="shadowBlurOuter1"></feGaussianBlur>
            <feColorMatrix values="0 0 0 0 0   0 0 0 0 0   0 0 0 0 0  0 0 0 0.25 0" type="matrix" in="shadowBlurOuter1" result="shadowMatrixOuter1"></feColorMatrix>
            <feMerge>
                <feMergeNode in="shadowMatrixOuter1"></feMergeNode>
                <feMergeNode in="SourceGraphic"></feMergeNode>
            </feMerge>
        </filter>
        <ellipse id="path-5" cx="18.5571341" cy="18.375" rx="18.5571341" ry="18.375"></ellipse>
        <filter x="-2.9%" y="-1.8%" width="105.9%" height="107.3%" filterUnits="objectBoundingBox" id="filter-7">
            <feOffset dx="0" dy="1" in="SourceAlpha" result="shadowOffsetOuter1"></feOffset>
            <feGaussianBlur stdDeviation="0.5" in="shadowOffsetOuter1" result="shadowBlurOuter1"></feGaussianBlur>
            <feColorMatrix values="0 0 0 0 0   0 0 0 0 0   0 0 0 0 0  0 0 0 0.25 0" type="matrix" in="shadowBlurOuter1" result="shadowMatrixOuter1"></feColorMatrix>
            <feMerge>
                <feMergeNode in="shadowMatrixOuter1"></feMergeNode>
                <feMergeNode in="SourceGraphic"></feMergeNode>
            </feMerge>
        </filter>
        <ellipse id="path-8" cx="27.4788332" cy="27.375" rx="27.4788332" ry="27.375"></ellipse>
    </defs>
    <g id="Website" stroke="none" stroke-width="1" fill="none" fill-rule="evenodd">
        <g id="Landingpage" transform="translate(-729.000000, -763.000000)">
            <g id="promo-warmed-up-leads-icon" transform="translate(722.000000, 762.000000)">
                <g id="promo-warmed-up-leads">
                    <g id="Group-17-Copy" filter="url(#filter-1)" transform="translate(26.264398, 21.000000) scale(-1, 1) translate(-26.264398, -21.000000) translate(0.764398, 0.000000)">
                        <g id="Warmedup" transform="translate(0.000000, 1.000000)">
                            <g id="Sad_avatar">
                                <mask id="mask-3" fill="white">
                                    <use xlink:href="#path-2"></use>
                                </mask>
                                <use id="Mask" fill="#E9EDF0" xlink:href="#path-2"></use>
                                <g id="Group-6" mask="url(#mask-3)">
                                    <g transform="translate(-0.474717, -1.412791)">
                                        <g id="Group-12" stroke="none" stroke-width="1" fill="none" fill-rule="evenodd" transform="translate(28.735742, 32.737529) scale(-1, 1) rotate(5.000000) translate(-28.735742, -32.737529) translate(3.735742, 2.237529)">
                                            <g id="Group-15" transform="translate(13.738224, 17.099678) scale(-1, 1) rotate(-93.000000) translate(-13.738224, -17.099678) translate(-2.639526, 4.384562)"></g>
                                            <path d="M48.7550249,55.5088672 L44.5670229,56.2503957 C44.882403,56.0797426 45.3513773,55.7750048 45.5633373,55.3757984 C45.5633373,55.3757984 46.1910256,54.7084227 45.3472815,54.5205011 L42.7996656,55.7292942 L41.8996036,56.5886546 L41.0712188,59.9712437 L41.2391485,60.003749 C41.3978625,60.0342228 41.5586244,60.0606334 41.7183624,60.087044 C42.2364868,60.1693232 42.7566592,60.2343339 43.2758076,60.2769972 C44.4687226,60.3755291 45.6985002,60.3348974 46.8105222,59.9367067 C47.3317186,59.7498009 47.8652024,59.4826475 48.2932183,59.1017253 C48.5051783,58.9138037 48.7191862,58.6801714 48.804175,58.3774652 C48.9147628,57.9853693 48.6823236,57.6816474 48.6823236,57.2895515 C48.6812996,57.1656248 48.8410376,57.0782666 48.9004274,56.9939559 C49.017159,56.8253343 48.9710807,56.5642756 49.041734,56.3722908 C49.1052196,56.1985903 49.2762212,56.0573952 49.2127356,55.8268103 C49.1625615,55.647015 48.9178347,55.4783934 48.7550249,55.5088672" id="Fill-896" fill="#FFB288"></path>
                                        </g>
                                        <polyline id="Fill-904" stroke="none" fill="#003071" fill-rule="evenodd" points="26.8411436 109.579985 21.9568479 109.602333 21.8288527 67.9375717 26.7131484 67.9375717 26.8411436 109.579985"></polyline>
                                        <polyline id="Fill-911" stroke="none" fill="#004A8B" fill-rule="evenodd" points="16.600506 109.579985 11.7162104 109.602333 11.5892392 67.9375717 16.4735348 67.9375717 16.600506 109.579985"></polyline>
                                        <path d="M29.5085629,62.8586092 C29.5461429,66.7851855 26.6791846,69.9962523 24.4020441,69.9689844 L12.1012198,69.8228285 L12.1012198,62.8586092 L29.5085629,62.8586092 Z" id="Fill-912" stroke="none" fill="#0D2364" fill-rule="evenodd"></path>
                                        <polyline id="Fill-915" stroke="none" fill="#4A4A4B" fill-rule="evenodd" points="29.5071734 62.8586092 12.1170278 62.8586092 11.5878496 31.4873095 19.8754973 30.3532491 24.4241109 30.3532491 29.5071734 31.4873095 29.5071734 62.8586092"></polyline>
                                        <path d="M17.7330073,30.5889129 L19.3938726,30.3532491 L23.8122659,30.3532491 L25.4352447,30.7280765 C25.4352447,30.7280765 26.0752205,34.8339098 21.7192889,34.8989205 C21.7192889,34.8989205 18.3002819,35.1091896 17.7330073,30.5889129" id="Fill-916" stroke="none" fill="#F9AE79" fill-rule="evenodd"></path>
                                        <path d="M17.7330073,30.5889129 L19.3938726,30.3532491 L23.8122659,30.3532491 L25.4352447,30.7280765 C25.4352447,30.7280765 26.0752205,34.8339098 21.7192889,34.8989205 C21.7192889,34.8989205 18.3002819,35.1091896 17.7330073,30.5889129" id="Fill-917" stroke="none" fill="#F9AE79" fill-rule="evenodd"></path>
                                        <path d="M14.2412991,12.6347804 L16.0424471,12.4204482 C15.9994407,12.0476523 15.8704216,11.681967 15.674845,11.3711345 C15.2263499,10.6580482 14.4686185,10.1623414 13.6371619,10.037399 C14.2638262,10.820575 14.3600786,11.7043145 14.2412991,12.6347804" id="Fill-918" stroke="none" fill="#9A6B1A" fill-rule="evenodd"></path>
                                        <path d="M31.1026465,10.4529118 C30.3336516,10.0059631 29.3844394,9.91352601 28.5509348,10.2050585 C27.7676044,10.4783066 27.0590231,11.1538087 26.957651,12.0121533 C26.8972372,12.5271601 27.1450359,13.1965674 27.5873872,13.467784 C28.4106521,13.9736487 28.256034,13.4728629 28.5540067,12.8572927 C29.1120657,11.7043682 29.817575,10.7413969 31.1026465,10.4529118" id="Fill-919" stroke="none" fill="#DF9B26" fill-rule="evenodd"></path>
                                        <path d="M30.9239753,9.28367952 C30.1170938,8.92307318 29.1637857,8.93526269 28.362024,9.31618488 C27.6083884,9.67374384 26.9684126,10.4233987 26.9489573,11.2888539 C26.9376937,11.8069081 27.2469301,12.4458416 27.7138564,12.6672844 C28.5801278,13.0796961 28.3794313,12.5992263 28.6169904,11.954198 C29.0624136,10.7464207 29.6726945,9.71132816 30.9239753,9.28367952" id="Fill-920" stroke="none" fill="#DF9B26" fill-rule="evenodd"></path>
                                        <polyline id="Fill-921" stroke="none" fill="#F9AE79" fill-rule="evenodd" points="16.7090459 11.084681 28.2849291 11.0531915 28.2849291 25.433766 24.9058566 27.8879207 16.7090459 23.5271234 16.7090459 11.084681"></polyline>
                                        <path d="M14.6611232,11.9427645 L28.2644499,14.965763 L30.0133759,10.765461 L24.4235708,8.50532265 C22.0746035,7.55657245 19.3877289,7.97914213 17.450394,9.60441014 L14.6611232,11.9427645" id="Fill-922" stroke="none" fill="#DF9B26" fill-rule="evenodd"></path>
                                        <polygon id="Fill-923" stroke="none" fill="#F9AE79" fill-rule="evenodd" points="18.7569687 31.4960156 22.7422263 31.4960156 22.7422263 23.2427015 18.7569687 23.2427015"></polygon>
                                        <path d="M19.0805405,13.0461764 L14.6611232,12.068984 L14.6611232,17.4059578 C15.171056,17.3033628 15.7342347,17.4029104 16.1827298,17.6761586 C16.865712,18.0906019 17.3019196,18.8270515 17.5005681,19.5970222 C17.6336831,20.112029 17.6674738,20.6453201 17.6633779,21.1786112 L19.0805405,21.1786112 L19.0805405,13.0461764" id="Fill-924" stroke="none" fill="#9A6B18" fill-rule="evenodd"></path>
                                        <path d="M17.9306661,19.3451385 C17.8948274,20.5204105 16.9036328,21.4437659 15.7178856,21.4071973 C14.5321383,21.3706288 13.6013575,20.3883575 13.6382201,19.2120697 C13.6750827,18.0367978 14.6662773,17.1124266 15.8510006,17.1489952 C17.0367478,17.1855637 17.9685527,18.1688508 17.9306661,19.3451385" id="Fill-925" stroke="none" fill="#F9AE79" fill-rule="evenodd"></path>
                                        <path d="M24.7850292,21.8541132 L24.5730692,21.8317657 C24.1972754,21.7484708 23.9054464,21.4620173 23.8767755,21.3817697 L23.9535726,21.2111165 L24.1051188,21.2649535 C24.1511971,21.3218379 24.4133312,21.5717229 24.7502145,21.5889913 C24.7614781,21.5889913 24.7727417,21.5900071 24.7840052,21.5900071 C25.0236122,21.5900071 25.2478597,21.4742068 25.4608437,21.2436219 L25.6410609,21.2405745 L25.6441328,21.4274803 C25.3359204,21.7616761 25.029756,21.8541132 24.7850292,21.8541132" id="Fill-931" stroke="none" fill="#CD9167" fill-rule="evenodd"></path>
                                        <path d="M26.1814534,18.7636056 L26.1363991,18.7636056 C25.8650494,18.7636056 25.6459217,18.6037441 25.6459217,18.4067056 L25.6459217,17.7992319 C25.6459217,17.6021933 25.8650494,17.4430754 26.1363991,17.4430754 L26.1814534,17.4430754 C26.4517792,17.4430754 26.6719309,17.6021933 26.6719309,17.7992319 L26.6719309,18.4067056 C26.6719309,18.6037441 26.4517792,18.7636056 26.1814534,18.7636056" id="Fill-933" stroke="none" fill="#1B2A49" fill-rule="evenodd"></path>
                                        <path d="M22.3643845,18.7636056 L22.3193302,18.7636056 C22.0490044,18.7636056 21.8288527,18.6037441 21.8288527,18.4067056 L21.8288527,17.7992319 C21.8288527,17.6021933 22.0490044,17.4430754 22.3193302,17.4430754 L22.3643845,17.4430754 C22.6357343,17.4430754 22.854862,17.6021933 22.854862,17.7992319 L22.854862,18.4067056 C22.854862,18.6037441 22.6357343,18.7636056 22.3643845,18.7636056" id="Fill-935" stroke="none" fill="#1B2A49" fill-rule="evenodd"></path>
                                        <path d="M25.240692,30.5655497 C25.3021297,31.1445514 25.5038501,34.5860564 21.5134726,34.6449724 C21.5134726,34.6449724 18.6137029,35.0655105 18.0392606,30.5655497 C17.41874,30.6539236 16.2728828,30.7636292 15.6656737,30.8601295 C16.9108107,36.8340052 21.3414471,36.3535354 21.3414471,36.3535354 C26.0066151,36.277351 26.7909695,32.7830247 26.8718624,30.8601295 C26.6680941,30.8194978 26.4643258,30.7808977 26.2605575,30.7382344 C25.9216263,30.6671289 25.5806472,30.6173551 25.240692,30.5655497 Z" id="Fill-937" stroke="none" fill="#E9EDF0" fill-rule="evenodd"></path>
                                        <path d="M24.8290595,55.6860983 L18.7313696,55.6860983 C17.6152518,55.6860983 16.7090459,54.7881378 16.7090459,53.6799081 L16.7090459,40.4847635 C16.7090459,39.3775497 17.6142278,38.4795891 18.7313696,38.4795891 L24.8290595,38.4795891 C25.9462014,38.4795891 26.8513832,39.3775497 26.8513832,40.4847635 L26.8513832,53.6799081 C26.8513832,54.7881378 25.9462014,55.6860983 24.8290595,55.6860983" id="Fill-938" stroke="none" fill="#00A88B" fill-rule="evenodd"></path>
                                        <path d="M14.0764413,74.2375169 L12.5282117,69.9823621 C12.7442676,70.2840524 13.1118697,70.7259222 13.5081427,70.88337 C13.5081427,70.88337 14.2269636,71.4339296 14.2105802,70.5217479 L12.6050088,68.0543879 L11.6588685,67.2498802 L8.51735508,66.9217792 L8.52452281,67.1015745 C8.5327145,67.2732434 8.54397807,67.4438966 8.55626561,67.6155655 C8.59517614,68.1701882 8.64944609,68.7227794 8.72317131,69.2713073 C8.8931489,70.5329216 9.19214561,71.8118044 9.78092339,72.9088603 C10.056369,73.4238671 10.4045159,73.9388739 10.8294598,74.3258908 C11.0403959,74.5168598 11.2912664,74.7037656 11.5738797,74.7443973 C11.9414819,74.7972185 12.1575377,74.5067019 12.5005648,74.4437227 C12.6091047,74.4234069 12.7207165,74.5767916 12.8067292,74.6245338 C12.9797787,74.7200183 13.1978824,74.6316444 13.3811715,74.6743076 C13.5470533,74.7129078 13.7078152,74.8693398 13.8962241,74.765729 C14.0426506,74.6854814 14.137879,74.403091 14.0764413,74.2375169" id="Fill-947" stroke="none" fill="#FFB288" fill-rule="evenodd"></path>
                                        <path d="M5.92271992,70.9759773 C2.7166969,49.5244711 9.57754926,35.9451454 9.85913864,35.3427805 C10.4653238,34.0466292 11.4736144,32.8350003 12.5026956,33.5978605 C13.5338247,34.3607206 13.8768518,36.0327151 13.2716906,37.3298821 C13.2102529,37.4609194 7.23031857,50.577848 10.1977586,70.1359169 L10.2110701,70.2994595 C8.78059607,70.5188706 7.3593377,70.8022767 5.92271992,70.9759773 Z" id="Fill-948" stroke="none" fill="#FFB288" fill-rule="evenodd" transform="translate(9.320871, 52.168411) rotate(-8.000000) translate(-9.320871, -52.168411) "></path>
                                        <path d="M11.8452295,31.7001899 C10.8151244,30.9373298 8.09957884,32.1044753 7.49339372,33.4006266 C7.35413497,33.6982538 6.7121112,37.7007419 5.445471,43.9346605 L9.70003045,45.0418743 C10.8161483,39.6561424 12.5845296,35.4951907 12.6132005,35.4322116 C13.2193856,34.1350446 12.8753346,32.4630501 11.8452295,31.7001899 Z" id="Fill-949" stroke="none" fill="#00A88B" fill-rule="evenodd"></path>
                                        <ellipse id="Oval" stroke="#90A4AE" stroke-width="3.75" fill="none" cx="20.8400762" cy="21.5608948" rx="18.7856661" ry="18.6118922"></ellipse>
                                    </g>
                                </g>
                            </g>
                            <path d="M23.2496702,22.1337209 L26.0864929,22.1337209 L25.3952754,23.8386177 C25.3952754,23.8386177 23.6401019,25.0590758 21.9179559,23.7883016 C21.148888,23.2219529 20.4128475,22.1337209 20.4128475,22.1337209 L23.2496702,22.1337209 Z" id="Fill-932" fill="#FFFFFF"></path>
                        </g>
                        <g id="Group-16" transform="translate(33.876671, 18.195096) rotate(-113.000000) translate(-33.876671, -18.195096) translate(19.876671, 6.195096)" fill="#FFB288">
                            <path d="M18.1768463,18.5431905 C13.8489115,18.5284139 10.4873303,17.3298659 8.24298313,14.9483674 C4.03449542,10.4767982 4.77901874,3.19849233 4.79518451,3.05072614 C4.91463156,2.01472094 4.17459872,1.07722655 3.13819351,0.954908975 C2.11256547,0.833412327 1.16147958,1.57388514 1.04113443,2.6123531 C0.997127628,2.98176858 0.0397550487,11.7237807 5.47055428,17.5178573 C8.46840575,20.7145326 12.7433527,22.3358561 18.193012,22.3539164 C18.4570529,21.0905155 18.4444795,19.8279355 18.1768463,18.5431905" id="Fill-895" transform="translate(9.666944, 11.647888) rotate(-5.000000) translate(-9.666944, -11.647888) "></path>
                            <path d="M21.0905118,19.6417744 C20.9043823,19.2887387 20.5701702,18.7627756 20.1245013,18.5199571 C20.1245013,18.5199571 19.3847849,17.8109303 19.1565831,18.7428412 L20.4688806,21.5913241 L21.419601,22.6061156 L25.2147578,23.5906579 L25.2546595,23.405085 C25.2920923,23.2296911 25.3249869,23.0519471 25.3578615,22.8753385 C25.4606781,22.3024266 25.5440775,21.726907 25.6022771,21.1520868 C25.7365719,19.8312572 25.7147839,18.4668377 25.2878202,17.2260141 C25.0873936,16.6444441 24.7967881,16.0476835 24.3759363,15.5656503 C24.1683318,15.3269541 23.909263,15.0850953 23.5698482,14.9849503 C23.1302133,14.8546761 22.7834607,15.1064883 22.3416682,15.0988383 C22.2020143,15.0975558 22.1067004,14.9187275 22.0128623,14.8512288 C21.8251461,14.7185023 21.5301003,14.7645023 21.3151606,14.6824133 C21.1206829,14.608629 20.9649281,14.4162608 20.7038789,14.4821573 C20.5003163,14.5342845 20.3055479,14.8023575 20.3367076,14.9834821 L21.0905118,19.6417744 Z" id="Fill-896" transform="translate(22.415961, 19.029644) rotate(95.000000) translate(-22.415961, -19.029644) "></path>
                        </g>
                        <path d="M33.5328424,28.3807533 C31.8043313,28.1644971 28.74482,26.5561854 28.6065852,27.841163 C28.5758664,28.1225375 28.8062951,31.7205526 29.9254849,36.5821355 L34.6173504,35.4882264 C33.6374194,31.4006774 34.2561536,28.8063058 34.2684411,28.6905055" id="Fill-897" fill="#4A4A4B" transform="translate(31.610671, 31.965173) rotate(-113.000000) translate(-31.610671, -31.965173) "></path>
                    </g>
                    <g id="Group-17-Copy-2" filter="url(#filter-4)" transform="translate(51.764398, 8.000000)">
                        <g id="Warmedup" transform="translate(0.000000, 0.500000)">
                            <g id="Sad_avatar">
                                <mask id="mask-6" fill="white">
                                    <use xlink:href="#path-5"></use>
                                </mask>
                                <use id="Mask" fill="#E9EDF0" xlink:href="#path-5"></use>
                                <g id="Group-6" mask="url(#mask-6)">
                                    <g transform="translate(-0.431561, -1.281977)">
                                        <g id="Group-12" stroke="none" stroke-width="1" fill="none" fill-rule="evenodd" transform="translate(26.334389, 29.511230) scale(-1, 1) rotate(5.000000) translate(-26.334389, -29.511230) translate(3.834389, 2.011230)">
                                            <g id="Group-15" transform="translate(12.489295, 15.516374) scale(-1, 1) rotate(-93.000000) translate(-12.489295, -15.516374) translate(-2.399569, 3.978584)"></g>
                                            <path d="M44.3227499,50.3691573 L40.5154754,51.0420258 C40.8021845,50.8871738 41.2285248,50.6106525 41.4212157,50.2484097 C41.4212157,50.2484097 41.9918415,49.642828 41.2248013,49.4723066 L38.9087869,50.5691744 L38.0905487,51.3489644 L37.3374717,54.4183508 L37.490135,54.4478464 C37.6344205,54.4754985 37.7805677,54.4994637 37.925784,54.5234288 C38.3968062,54.5980896 38.8696902,54.6570808 39.3416433,54.6957938 C40.4261115,54.7852023 41.5440911,54.7483328 42.5550202,54.3870117 C43.0288351,54.2174119 43.5138204,53.9749949 43.9029257,53.6293433 C44.0956166,53.4588219 44.2901693,53.2468222 44.3674318,52.9721444 C44.4679662,52.6163537 44.2566578,52.3407541 44.2566578,51.9849634 C44.2557269,51.8725114 44.4009433,51.7932419 44.454934,51.7167377 C44.5610536,51.5637293 44.5191643,51.3268427 44.5833946,51.1526343 C44.6411088,50.9950171 44.7965647,50.8668956 44.7388505,50.6576612 C44.6932377,50.4945136 44.4707588,50.3415052 44.3227499,50.3691573" id="Fill-896" fill="#FFB288"></path>
                                        </g>
                                        <polyline id="Fill-904" stroke="none" fill="#003071" fill-rule="evenodd" points="24.4010396 99.4336905 19.9607708 99.4539688 19.8444116 61.6470558 24.2846804 61.6470558 24.4010396 99.4336905"></polyline>
                                        <polyline id="Fill-911" stroke="none" fill="#004A8B" fill-rule="evenodd" points="15.0913691 99.4336905 10.6511003 99.4539688 10.535672 61.6470558 14.9759408 61.6470558 15.0913691 99.4336905"></polyline>
                                        <path d="M26.8259663,57.0383676 C26.8601299,60.601372 24.2538041,63.5151178 22.1836765,63.4903747 L11.0011089,63.3577518 L11.0011089,57.0383676 L26.8259663,57.0383676 Z" id="Fill-912" stroke="none" fill="#0D2364" fill-rule="evenodd"></path>
                                        <polyline id="Fill-915" stroke="none" fill="#00B99A" fill-rule="evenodd" points="26.8247031 57.0383676 11.0154798 57.0383676 10.5344087 28.5718179 18.0686339 27.542763 22.2037372 27.542763 26.8247031 28.5718179 26.8247031 57.0383676"></polyline>
                                        <path d="M16.1209157,27.7566062 L17.6307933,27.542763 L21.6475145,27.542763 L23.1229497,27.8828842 C23.1229497,27.8828842 23.7047459,31.6085478 19.7448081,31.667539 C19.7448081,31.667539 16.6366199,31.8583387 16.1209157,27.7566062" id="Fill-916" stroke="none" fill="#F9AE79" fill-rule="evenodd"></path>
                                        <path d="M16.1209157,27.7566062 L17.6307933,27.542763 L21.6475145,27.542763 L23.1229497,27.8828842 C23.1229497,27.8828842 23.7047459,31.6085478 19.7448081,31.667539 C19.7448081,31.667539 16.6366199,31.8583387 16.1209157,27.7566062" id="Fill-917" stroke="none" fill="#F9AE79" fill-rule="evenodd"></path>
                                        <path d="M12.9466355,11.4648933 L14.5840428,11.2704067 C14.5449461,10.932129 14.427656,10.6003034 14.2498591,10.3182517 C13.8421363,9.67119187 13.1532895,9.2213839 12.3974199,9.10801017 C12.9671147,9.81866989 13.0546169,10.6205816 12.9466355,11.4648933" id="Fill-918" stroke="none" fill="#0D0D0D" fill-rule="evenodd"></path>
                                        <polyline id="Fill-921" stroke="none" fill="#F9AE79" fill-rule="evenodd" points="15.1900418 10.0583217 25.7135719 10.0297478 25.7135719 23.0787876 22.6416878 25.3057058 15.1900418 21.3486861 15.1900418 10.0583217"></polyline>
                                        <path d="M25.6949544,13.5800442 L27.2848872,9.76865903 L20.3065905,8.71511291 C18.1711656,7.85420995 13.3282938,10.836953 13.3282938,10.836953 L25.6949544,13.5800442 Z" id="Fill-922" stroke="none" fill="#0D0D0D" fill-rule="evenodd"></path>
                                        <polygon id="Fill-923" stroke="none" fill="#F9AE79" fill-rule="evenodd" points="17.0517897 28.5797179 20.6747512 28.5797179 20.6747512 21.0905995 17.0517897 21.0905995"></polygon>
                                        <path d="M17.3459459,11.8381971 L13.3282938,10.9514855 L13.3282938,15.794295 C13.7918691,15.7011995 14.3038498,15.7915298 14.7115726,16.0394772 C15.3324655,16.4155462 15.7290178,17.083806 15.9096073,17.7824831 C16.030621,18.2498041 16.0613398,18.7337164 16.0576163,19.2176286 L17.3459459,19.2176286 L17.3459459,11.8381971" id="Fill-924" stroke="none" fill="#343434" fill-rule="evenodd"></path>
                                        <path d="M16.3006055,17.553922 C16.2680249,18.6203725 15.3669389,19.458232 14.2889869,19.4250494 C13.2110348,19.3918669 12.3648704,18.5005466 12.3983819,17.4331744 C12.4318933,16.3667239 13.3329793,15.5279427 14.4100005,15.5611252 C15.4879526,15.5943078 16.3350479,16.4865498 16.3006055,17.553922" id="Fill-925" stroke="none" fill="#F9AE79" fill-rule="evenodd"></path>
                                        <path d="M19.8509277,14.9813224 C18.9926619,14.9813224 18.2954373,15.5334433 18.2954373,16.2118422 C18.2954373,16.8902411 18.9926619,17.4414402 19.8509277,17.4414402 C20.7082626,17.4414402 21.4064181,16.8902411 21.4064181,16.2118422 C21.4064181,15.5334433 20.7082626,14.9813224 19.8509277,14.9813224 Z M19.8509277,17.7843266 C18.8204502,17.7843266 17.9826637,17.0791973 17.9826637,16.2118422 C17.9826637,15.3444871 18.8204502,14.638436 19.8509277,14.638436 C20.8804743,14.638436 21.7182609,15.3444871 21.7182609,16.2118422 C21.7182609,17.0791973 20.8804743,17.7843266 19.8509277,17.7843266 L19.8509277,17.7843266 Z" id="Fill-926" stroke="none" fill="#474344" fill-rule="evenodd"></path>
                                        <path d="M24.5043666,14.9813224 C23.6470317,14.9813224 22.9488763,15.5334433 22.9488763,16.2118422 C22.9488763,16.8902411 23.6470317,17.4414402 24.5043666,17.4414402 C25.3626324,17.4414402 26.059857,16.8902411 26.059857,16.2118422 C26.059857,15.5334433 25.3626324,14.9813224 24.5043666,14.9813224 Z M24.5043666,17.7843266 C23.47482,17.7843266 22.6370335,17.0791973 22.6370335,16.2118422 C22.6370335,15.3444871 23.47482,14.638436 24.5043666,14.638436 C25.5348441,14.638436 26.3726307,15.3444871 26.3726307,16.2118422 C26.3726307,17.0791973 25.5348441,17.7843266 24.5043666,17.7843266 L24.5043666,17.7843266 Z" id="Fill-927" stroke="none" fill="#474344" fill-rule="evenodd"></path>
                                        <polygon id="Fill-928" stroke="none" fill="#474344" fill-rule="evenodd" points="21.7061595 16.8155803 23.1099174 16.8155803 23.1099174 16.4819113 21.7061595 16.4819113"></polygon>
                                        <polygon id="Fill-929" stroke="none" fill="#474344" fill-rule="evenodd" points="16.1209157 17.0109887 18.2703037 17.0109887 18.2703037 16.4819113 16.1209157 16.4819113"></polygon>
                                        <polygon id="Fill-930" stroke="none" fill="#474344" fill-rule="evenodd" points="26.3605293 17.0109887 26.8417912 17.0109887 26.8417912 16.4819113 26.3605293 16.4819113"></polygon>
                                        <path d="M22.5318447,19.8305842 L22.3391538,19.8103059 C21.9975231,19.7347235 21.732224,19.4747934 21.7061595,19.4019762 L21.7759751,19.2471242 L21.9137444,19.2959763 C21.9556337,19.3475937 22.1939375,19.5743411 22.500195,19.5900107 C22.5104346,19.5900107 22.5206742,19.5909324 22.5309138,19.5909324 C22.7487384,19.5909324 22.9525997,19.4858543 23.1462215,19.2766199 L23.3100554,19.2738546 L23.312848,19.4434544 C23.0326549,19.7467061 22.7543236,19.8305842 22.5318447,19.8305842" id="Fill-931" stroke="none" fill="#CD9167" fill-rule="evenodd"></path>
                                        <path d="M24.7151719,17.0262347 L24.6742134,17.0262347 C24.4275318,17.0262347 24.2283248,16.8811752 24.2283248,16.702381 L24.2283248,16.1511549 C24.2283248,15.9723606 24.4275318,15.8279758 24.6742134,15.8279758 L24.7151719,15.8279758 C24.9609226,15.8279758 25.1610605,15.9723606 25.1610605,16.1511549 L25.1610605,16.702381 C25.1610605,16.8811752 24.9609226,17.0262347 24.7151719,17.0262347" id="Fill-933" stroke="none" fill="#1B2A49" fill-rule="evenodd"></path>
                                        <path d="M20.3312587,17.0262347 L20.2903002,17.0262347 C20.0445495,17.0262347 19.8444116,16.8811752 19.8444116,16.702381 L19.8444116,16.1511549 C19.8444116,15.9723606 20.0445495,15.8279758 20.2903002,15.8279758 L20.3312587,15.8279758 C20.5779403,15.8279758 20.7771473,15.9723606 20.7771473,16.1511549 L20.7771473,16.702381 C20.7771473,16.8811752 20.5779403,17.0262347 20.3312587,17.0262347" id="Fill-935" stroke="none" fill="#1B2A49" fill-rule="evenodd"></path>
                                        <path d="M22.9460836,27.7354062 C23.0019361,28.2607967 23.1853182,31.3836438 19.5577024,31.4371046 C19.5577024,31.4371046 16.9215481,31.818704 16.3993278,27.7354062 C15.8352182,27.8155974 14.7935298,27.915145 14.2415215,28.0027101 C15.3734643,33.4234492 19.4013156,32.9874673 19.4013156,32.9874673 C23.6423774,32.918337 24.3554268,29.7475595 24.4289659,28.0027101 C24.2437219,27.9658406 24.058478,27.9308146 23.8732341,27.8921016 C23.5651148,27.82758 23.2551338,27.7824148 22.9460836,27.7354062 Z" id="Fill-937" stroke="none" fill="#FFB435" fill-rule="evenodd"></path>
                                        <path d="M22.5718723,50.5299781 L17.0285178,50.5299781 C16.0138652,50.5299781 15.1900418,49.7151621 15.1900418,48.7095463 L15.1900418,36.7361743 C15.1900418,35.7314803 16.0129344,34.9166642 17.0285178,34.9166642 L22.5718723,34.9166642 C23.5874558,34.9166642 24.4103484,35.7314803 24.4103484,36.7361743 L24.4103484,48.7095463 C24.4103484,49.7151621 23.5874558,50.5299781 22.5718723,50.5299781" id="Fill-938" stroke="none" fill="#00A88B" fill-rule="evenodd"></path>
                                        <path d="M12.7967648,67.3636727 L11.3892834,63.5025137 C11.5856978,63.7762698 11.9198815,64.1772257 12.2801298,64.320095 C12.2801298,64.320095 12.9336033,64.8196768 12.9187093,63.9919564 L11.4590989,61.7530557 L10.5989714,61.0230395 L7.74305007,60.7253182 L7.74956619,60.8884658 C7.75701318,61.0442394 7.76725279,61.1990914 7.77842328,61.354865 C7.81379649,61.8581338 7.86313281,62.359559 7.93015574,62.8572974 C8.08468081,64.0020955 8.35649601,65.1625632 8.89174854,66.1580399 C9.14215364,66.6253609 9.45865078,67.0926818 9.84496348,67.4438639 C10.0367235,67.6171506 10.2647876,67.7867503 10.5217088,67.8236198 C10.8558926,67.8715502 11.052307,67.6079332 11.3641498,67.5507855 C11.4628224,67.5323507 11.5642877,67.6715331 11.6424811,67.7148548 C11.7997988,67.8014981 11.998075,67.7213069 12.1647014,67.7600199 C12.315503,67.7950459 12.4616502,67.9369935 12.632931,67.8429763 C12.766046,67.770159 12.8526173,67.5139159 12.7967648,67.3636727" id="Fill-947" stroke="none" fill="#FFB288" fill-rule="evenodd"></path>
                                        <path d="M5.38429083,64.4041275 C2.46972446,44.938872 8.70686297,32.6168912 8.96285331,32.0703008 C9.51393069,30.8941636 10.4305586,29.7947225 11.3660869,30.4869474 C12.303477,31.1791724 12.6153198,32.6963526 12.0651733,33.8734116 C12.0093208,33.9923157 6.57301688,45.8947139 9.27068963,63.6418505 L9.28279099,63.7902502 C7.98236006,63.9893456 6.690307,64.2465104 5.38429083,64.4041275 Z" id="Fill-948" stroke="none" fill="#FFB288" fill-rule="evenodd" transform="translate(8.473519, 47.338002) rotate(-8.000000) translate(-8.473519, -47.338002) "></path>
                                        <path d="M10.7683904,28.7649872 C9.83193124,28.0727622 7.36325349,29.1318387 6.81217611,30.307976 C6.68557725,30.5780451 6.10191927,34.2099324 4.95042818,39.8666363 L8.8182095,40.8713304 C9.83286212,35.9842774 11.4404815,32.208599 11.4665459,32.1514513 C12.0176233,30.9743923 11.7048497,29.4572121 10.7683904,28.7649872 Z" id="Fill-949" stroke="none" fill="#00A88B" fill-rule="evenodd"></path>
                                        <ellipse id="Oval" stroke="#90A4AE" stroke-width="3.75" fill="none" cx="18.9455238" cy="19.5645156" rx="16.9074237" ry="16.7149577"></ellipse>
                                    </g>
                                </g>
                            </g>
                            <path d="M21.1360638,20.0843023 L23.7149935,20.0843023 L23.086614,21.6313383 C23.086614,21.6313383 21.4910018,22.738791 19.9254145,21.5856811 C19.2262618,21.0717721 18.5571341,20.0843023 18.5571341,20.0843023 L21.1360638,20.0843023 Z" id="Fill-932" fill="#FFFFFF"></path>
                        </g>
                        <g id="Group-16" transform="translate(30.525344, 16.463050) rotate(-113.000000) translate(-30.525344, -16.463050) translate(18.025344, 5.963050)" fill="#FFB288">
                            <path d="M16.5244057,16.8262284 C12.5899195,16.81282 9.53393663,15.7252487 7.49362103,13.5642593 C3.6677231,9.50672433 4.34456249,2.90233563 4.35925864,2.7682515 C4.46784687,1.82817271 3.79508975,0.977483346 2.85290319,0.866491477 C1.92051407,0.756244519 1.05589053,1.42815503 0.94648585,2.37046855 C0.906479661,2.7056789 0.0361409534,10.6382455 4.97323117,15.8958335 C7.69855069,18.7965203 11.5848661,20.2677213 16.5391018,20.2841093 C16.779139,19.13769 16.7677086,17.9920155 16.5244057,16.8262284" id="Fill-895" transform="translate(8.788131, 10.569380) rotate(-5.000000) translate(-8.788131, -10.569380) "></path>
                            <path d="M19.1731926,17.8230916 C19.0039839,17.5027444 18.7001547,17.0254816 18.2950012,16.8051463 C18.2950012,16.8051463 17.6225317,16.1617701 17.4150755,17.007393 L18.6080733,19.5921274 L19.4723645,20.5129567 L22.9225071,21.4063377 L22.9587813,21.2379475 C22.9928111,21.0787937 23.0227153,20.9175075 23.0526013,20.7572516 C23.146071,20.2373871 23.2218887,19.7151563 23.2747973,19.1935602 C23.3968835,17.9950297 23.3770762,16.7569453 22.9889275,15.6310128 C22.8067215,15.1032919 22.5425346,14.5617869 22.1599421,14.1243864 C21.9712108,13.9077917 21.7356936,13.6883272 21.4271347,13.5974549 C21.0274666,13.4792431 20.712237,13.7077394 20.3106074,13.7007977 C20.1836494,13.699634 20.0970004,13.5373639 20.011693,13.4761151 C19.8410419,13.355678 19.5728184,13.3974188 19.3774188,13.3229306 C19.2006208,13.2559781 19.0590256,13.0814218 18.8217081,13.1412168 C18.6366512,13.1885174 18.459589,13.4317688 18.487916,13.5961227 L19.1731926,17.8230916 Z" id="Fill-896" transform="translate(20.378146, 17.267640) rotate(95.000000) translate(-20.378146, -17.267640) "></path>
                        </g>
                        <path d="M30.4844021,25.3454983 C28.9130285,25.1492659 26.1316545,23.689872 26.0059866,24.8558701 C25.9780603,25.1111914 26.187541,28.376057 27.2049863,32.7874934 L31.4703186,31.7948721 C30.5794722,28.0857998 31.1419578,25.7316479 31.1531283,25.6265698" id="Fill-897" fill="#00A88B" transform="translate(28.736973, 28.598028) rotate(-113.000000) translate(-28.736973, -28.598028) "></path>
                    </g>
                    <g id="Group-17" filter="url(#filter-7)" transform="translate(26.884817, 15.250000)">
                        <g id="Warmedup">
                            <g id="Sad_avatar">
                                <mask id="mask-9" fill="white">
                                    <use xlink:href="#path-8"></use>
                                </mask>
                                <use id="Mask" fill="#E9EDF0" xlink:href="#path-8"></use>
                                <g id="Group-6" mask="url(#mask-9)">
                                    <g transform="translate(-0.639043, -1.909884)">
                                        <g id="Group-12" stroke="none" stroke-width="1" fill="none" fill-rule="evenodd" transform="translate(38.815802, 44.012248) scale(-1, 1) rotate(5.000000) translate(-38.815802, -44.012248) translate(5.315802, 3.012248)">
                                            <g id="Group-15" transform="translate(18.493763, 23.116231) scale(-1, 1) rotate(-93.000000) translate(-18.493763, -23.116231) translate(-3.553207, 5.927278)"></g>
                                        </g>
                                        <polyline id="Fill-915" stroke="none" fill="#00B99A" fill-rule="evenodd" points="39.7211949 84.9755273 16.3113836 84.9755273 15.5990283 42.5661776 26.7554771 41.033096 32.8786108 41.033096 39.7211949 42.5661776 39.7211949 84.9755273"></polyline>
                                        <path d="M23.871356,41.3516786 L26.1071362,41.033096 L32.0549733,41.033096 L34.2397524,41.5398071 C34.2397524,41.5398071 35.1012584,47.0902855 29.2375043,47.1781703 C29.2375043,47.1781703 24.6349949,47.4624229 23.871356,41.3516786" id="Fill-916" stroke="none" fill="#F9AE79" fill-rule="evenodd"></path>
                                        <path d="M23.871356,41.3516786 L26.1071362,41.033096 L32.0549733,41.033096 L34.2397524,41.5398071 C34.2397524,41.5398071 35.1012584,47.0902855 29.2375043,47.1781703 C29.2375043,47.1781703 24.6349949,47.4624229 23.871356,41.3516786" id="Fill-917" stroke="none" fill="#F9AE79" fill-rule="evenodd"></path>
                                        <path d="M19.1709795,17.0803513 L21.5956019,16.7906059 C21.5377087,16.2866411 21.3640291,15.7922888 21.1007529,15.3720893 C20.4970095,14.4081022 19.4769864,13.7379801 18.3577179,13.5690764 C19.2013045,14.6278143 19.330875,15.8224992 19.1709795,17.0803513" id="Fill-918" stroke="none" fill="#0D0D0D" fill-rule="evenodd"></path>
                                        <path d="M41.8689473,14.1307882 C40.8337617,13.5265798 39.5559761,13.4016185 38.4339507,13.7957272 C37.3794675,14.1651182 36.4256081,15.0782969 36.2891455,16.2386517 C36.2078194,16.9348646 36.5413945,17.8398041 37.1368674,18.2064487 C38.2451086,18.8903028 38.0369688,18.2133147 38.438086,17.3811549 C39.1893192,15.8225718 40.1390433,14.5207773 41.8689473,14.1307882" id="Fill-919" stroke="none" fill="#0D0D0D" fill-rule="evenodd"></path>
                                        <path d="M41.6284283,12.5501594 C40.5422416,12.062673 39.2589423,12.0791514 38.1796477,12.5941018 C37.1651383,13.0774685 36.3036323,14.0908908 36.2774425,15.2608581 C36.26228,15.9611906 36.6785597,16.824934 37.3071145,17.1242918 C38.4732489,17.6818114 38.2030806,17.0322873 38.5228716,16.1603047 C39.1224798,14.5275688 39.9440119,13.128277 41.6284283,12.5501594" id="Fill-920" stroke="none" fill="#0D0D0D" fill-rule="evenodd"></path>
                                        <polyline id="Fill-921" stroke="none" fill="#F9AE79" fill-rule="evenodd" points="22.4929465 14.9848466 38.0758661 14.9422774 38.0758661 34.3826836 33.5271147 37.7003372 22.4929465 31.8051854 22.4929465 14.9848466"></polyline>
                                        <path d="M19.7361274,16.1448483 L38.0482979,20.2314944 L40.4026214,14.5533084 L32.8778838,11.4979362 C29.7158124,10.2153665 26.0988658,10.7866181 23.490915,12.9837396 L19.7361274,16.1448483" id="Fill-922" stroke="none" fill="#0D0D0D" fill-rule="evenodd"></path>
                                        <polygon id="Fill-923" stroke="none" fill="#F9AE79" fill-rule="evenodd" points="25.2497655 42.5779471 30.6145354 42.5779471 30.6145354 31.4206891 25.2497655 31.4206891"></polygon>
                                        <path d="M25.6853429,17.6364977 L19.7361274,16.3154783 L19.7361274,23.5302763 C20.4225754,23.391583 21.1807006,23.5261567 21.784444,23.8955477 C22.7038431,24.4558137 23.2910456,25.4513844 23.558457,26.4922708 C23.7376503,27.1884837 23.7831378,27.9094142 23.7776241,28.6303447 L25.6853429,28.6303447 L25.6853429,17.6364977" id="Fill-924" stroke="none" fill="#343434" fill-rule="evenodd"></path>
                                        <path d="M24.1374351,26.1517614 C24.0891908,27.7405549 22.7548904,28.9887946 21.1586921,28.9393594 C19.5624939,28.8899241 18.3095197,27.5620388 18.3591424,25.971872 C18.4087651,24.3830785 19.7430656,23.1334656 21.3378854,23.1829009 C22.9340836,23.2323361 24.1884363,24.5615946 24.1374351,26.1517614" id="Fill-925" stroke="none" fill="#F9AE79" fill-rule="evenodd"></path>
                                        <path d="M29.3946429,22.319113 C28.1237494,22.319113 27.0913206,23.1416604 27.0913206,24.1523363 C27.0913206,25.1630122 28.1237494,25.9841864 29.3946429,25.9841864 C30.6641581,25.9841864 31.6979653,25.1630122 31.6979653,24.1523363 C31.6979653,23.1416604 30.6641581,22.319113 29.3946429,22.319113 Z M29.3946429,26.4950172 C27.8687436,26.4950172 26.628175,25.4445184 26.628175,24.1523363 C26.628175,22.8601542 27.8687436,21.8082823 29.3946429,21.8082823 C30.9191639,21.8082823 32.1597324,22.8601542 32.1597324,24.1523363 C32.1597324,25.4445184 30.9191639,26.4950172 29.3946429,26.4950172 L29.3946429,26.4950172 Z" id="Fill-926" stroke="none" fill="#474344" fill-rule="evenodd"></path>
                                        <path d="M36.2853121,22.319113 C35.015797,22.319113 33.9819898,23.1416604 33.9819898,24.1523363 C33.9819898,25.1630122 35.015797,25.9841864 36.2853121,25.9841864 C37.5562057,25.9841864 38.5886345,25.1630122 38.5886345,24.1523363 C38.5886345,23.1416604 37.5562057,22.319113 36.2853121,22.319113 Z M36.2853121,26.4950172 C34.7607912,26.4950172 33.5202226,25.4445184 33.5202226,24.1523363 C33.5202226,22.8601542 34.7607912,21.8082823 36.2853121,21.8082823 C37.8112115,21.8082823 39.0517801,22.8601542 39.0517801,24.1523363 C39.0517801,25.4445184 37.8112115,26.4950172 36.2853121,26.4950172 L36.2853121,26.4950172 Z" id="Fill-927" stroke="none" fill="#474344" fill-rule="evenodd"></path>
                                        <polygon id="Fill-928" stroke="none" fill="#474344" fill-rule="evenodd" points="32.1418131 25.051783 34.2204547 25.051783 34.2204547 24.5546842 32.1418131 24.5546842"></polygon>
                                        <polygon id="Fill-929" stroke="none" fill="#474344" fill-rule="evenodd" points="23.871356 25.3429016 27.0541036 25.3429016 27.0541036 24.5546842 23.871356 24.5546842"></polygon>
                                        <polygon id="Fill-930" stroke="none" fill="#474344" fill-rule="evenodd" points="39.0338607 25.3429016 39.7464985 25.3429016 39.7464985 24.5546842 39.0338607 24.5546842"></polygon>
                                        <path d="M33.3644624,29.5435234 L33.0791316,29.5133129 C32.5732553,29.4007105 32.1804086,29.0134678 32.1418131,28.9049849 L32.2451938,28.6742871 L32.4491984,28.7470668 C32.5112269,28.8239661 32.8640997,29.1617735 33.3175964,29.1851179 C33.332759,29.1851179 33.3479215,29.1864911 33.363084,29.1864911 C33.6856318,29.1864911 33.9875035,29.0299462 34.2742127,28.7182296 L34.5168127,28.71411 L34.520948,28.966779 C34.1060467,29.4185621 33.6939022,29.5435234 33.3644624,29.5435234" id="Fill-931" stroke="none" fill="#CD9167" fill-rule="evenodd"></path>
                                        <path d="M36.597466,25.365615 L36.536816,25.365615 C36.1715375,25.365615 35.8765578,25.1495059 35.8765578,24.883139 L35.8765578,24.0619246 C35.8765578,23.7955577 36.1715375,23.5804538 36.536816,23.5804538 L36.597466,23.5804538 C36.9613661,23.5804538 37.2577242,23.7955577 37.2577242,24.0619246 L37.2577242,24.883139 C37.2577242,25.1495059 36.9613661,25.365615 36.597466,25.365615" id="Fill-933" stroke="none" fill="#1B2A49" fill-rule="evenodd"></path>
                                        <path d="M30.1059023,25.365615 L30.0452522,25.365615 C29.6813521,25.365615 29.3849941,25.1495059 29.3849941,24.883139 L29.3849941,24.0619246 C29.3849941,23.7955577 29.6813521,23.5804538 30.0452522,23.5804538 L30.1059023,23.5804538 C30.4711808,23.5804538 30.7661604,23.7955577 30.7661604,24.0619246 L30.7661604,24.883139 C30.7661604,25.1495059 30.4711808,25.365615 30.1059023,25.365615" id="Fill-935" stroke="none" fill="#1B2A49" fill-rule="evenodd"></path>
                                        <path d="M33.9778546,41.320095 C34.0605592,42.1028195 34.3321059,46.7552244 28.9604439,46.8348701 C28.9604439,46.8348701 25.0569078,47.4033753 24.28362,41.320095 C23.4483039,41.4395634 21.9058037,41.5878692 21.0884069,41.7183232 C22.7645529,49.7941182 28.7288711,49.1445941 28.7288711,49.1445941 C35.0089049,49.0416041 36.0647666,44.3177927 36.173661,41.7183232 C35.8993575,41.6633952 35.625054,41.6112136 35.3507505,41.5535391 C34.8944969,41.4574151 34.4354866,41.3901282 33.9778546,41.320095 Z" id="Fill-937" stroke="none" fill="#FFB435" fill-rule="evenodd"></path>
                                        <path d="M33.423734,75.2793552 L25.2153053,75.2793552 C23.7128389,75.2793552 22.4929465,74.0654455 22.4929465,72.5672832 L22.4929465,54.7294025 C22.4929465,53.2326135 23.7114605,52.0187038 25.2153053,52.0187038 L33.423734,52.0187038 C34.9275788,52.0187038 36.1460928,53.2326135 36.1460928,54.7294025 L36.1460928,72.5672832 C36.1460928,74.0654455 34.9275788,75.2793552 33.423734,75.2793552" id="Fill-938" stroke="none" fill="#00A88B" fill-rule="evenodd"></path>
                                        <path d="M7.9728922,95.9490063 C3.65709198,66.949748 12.8928548,48.5925114 13.2719174,47.7782032 C14.0879358,46.0259988 15.4452502,44.3880559 16.8305518,45.4193299 C18.2186102,46.4506038 18.6803774,48.7108926 17.8657373,50.4644703 C17.7830328,50.6416132 9.73312115,68.3737574 13.7277519,94.8133691 L13.7456713,95.0344544 C11.8200332,95.3310659 9.90680075,95.7141889 7.9728922,95.9490063 Z" id="Fill-948" stroke="none" fill="#FFB288" fill-rule="evenodd" transform="translate(12.547326, 70.523963) rotate(-8.000000) translate(-12.547326, -70.523963) "></path>
                                        <path d="M15.9455012,42.8539605 C14.5588213,41.8226865 10.9032792,43.4004944 10.0872608,45.1526989 C9.89979708,45.5550468 9.03553431,50.9658177 7.33044173,59.3931521 L13.0577333,60.8899412 C14.5601997,53.6092296 16.9407129,47.9842393 16.9793084,47.8991009 C17.7953268,46.1455232 17.3321812,43.8852344 15.9455012,42.8539605 Z" id="Fill-949" stroke="none" fill="#00A88B" fill-rule="evenodd"></path>
                                        <ellipse id="Oval" stroke="#90A4AE" stroke-width="3.75" fill="none" cx="28.0539488" cy="29.1471355" rx="25.9374351" ry="25.8202431"></ellipse>
                                    </g>
                                </g>
                            </g>
                            <path d="M31.297633,29.9215116 L35.1164327,29.9215116 L34.1859476,32.2262795 C34.1859476,32.2262795 31.8232141,33.876158 29.5049407,32.1582596 C28.4696569,31.3926401 27.4788332,29.9215116 27.4788332,29.9215116 L31.297633,29.9215116 Z" id="Fill-932" fill="#FFFFFF"></path>
                        </g>
                        <g id="Group-16" transform="translate(45.533473, 23.650047) rotate(-113.000000) translate(-45.533473, -23.650047) translate(27.033473, 7.650047)" fill="#FFB288">
                            <path d="M24.4688315,25.0676464 C18.6427655,25.0476706 14.11756,23.4274113 11.0963234,20.2079782 C5.43105152,14.1630791 6.43329446,4.32388778 6.45505607,4.12412978 C6.61585017,2.72360424 5.61965212,1.4562507 4.22449126,1.29089547 C2.84383814,1.12665 1.5635302,2.12765954 1.40152712,3.53151438 C1.34228719,4.03090938 0.0535164117,15.8488147 7.36420769,23.6815478 C11.399777,28.0029793 17.1545133,30.1947684 24.4905931,30.2191833 C24.8460327,28.5112524 24.829107,26.8044313 24.4688315,25.0676464" id="Fill-895" transform="translate(13.013193, 15.746220) rotate(-5.000000) translate(-13.013193, -15.746220) "></path>
                            <path d="M28.3910736,26.5527691 C28.1405147,26.0755172 27.6906137,25.3644929 27.0906748,25.0362383 C27.0906748,25.0362383 26.0949028,24.0777391 25.787708,25.3375446 L27.5542624,29.1882715 L28.8340783,30.5601192 L33.9429432,31.8910746 L33.996657,31.6402074 C34.0470473,31.4031009 34.0913285,31.1628173 34.1355827,30.9240687 C34.2739898,30.1495767 34.3862582,29.3715595 34.4646037,28.5944877 C34.6453852,26.8089218 34.6160552,24.9644287 34.0412965,23.2870191 C33.7714914,22.5008226 33.3802917,21.6940906 32.8137604,21.0424532 C32.5342929,20.7197713 32.1855463,20.392814 31.7286418,20.2574328 C31.1368256,20.0813214 30.6700433,20.4217342 30.0753226,20.4113925 C29.8873269,20.4096588 29.7590198,20.1679094 29.6326992,20.0766612 C29.3800044,19.8972346 28.9828273,19.9594198 28.6934855,19.8484476 C28.4316885,19.7487021 28.2220186,19.4886488 27.8706062,19.5777312 C27.5965797,19.6481994 27.3343914,20.0105943 27.3763371,20.2554481 L28.3910736,26.5527691 Z" id="Fill-896" transform="translate(30.175332, 25.725259) rotate(95.000000) translate(-30.175332, -25.725259) "></path>
                        </g>
                        <path d="M45.1403647,37.014722 C42.813523,36.7223758 38.69495,34.5481766 38.5088647,36.2852758 C38.4675124,36.6656525 38.777705,41.5296359 40.2843066,48.1017758 L46.6002794,46.6229728 C45.2811415,41.097212 46.1140529,37.590006 46.1305938,37.4334611" id="Fill-897" fill="#00A88B" transform="translate(42.552826, 41.860327) rotate(-113.000000) translate(-42.552826, -41.860327) "></path>
                    </g>
                </g>
            </g>
        </g>
    </g>
</svg>