<?xml version="1.0" encoding="UTF-8"?>
<svg width="79px" height="69px" viewBox="0 0 79 69" version="1.1" xmlns="http://www.w3.org/2000/svg" xmlns:xlink="http://www.w3.org/1999/xlink">
    <!-- Generator: Sketch 43.2 (39069) - http://www.bohemiancoding.com/sketch -->
    <title>promo-automated-outreach-icon</title>
    <desc>Created with Sketch.</desc>
    <defs>
        <path d="M73.4850756,19.3958333 C73.6309089,18.6666667 73.6309089,18.0833333 73.6309089,17.5 C73.6309089,16.9166667 73.6309089,16.3333333 73.4850756,15.6041667 L77.1309089,12.9791667 C77.5684089,12.6875 77.5684089,12.25 77.4225756,11.8125 L73.7767423,5.54166667 C73.4850756,5.10416667 73.0475756,4.95833333 72.6100756,5.25 L68.3809089,7.14583333 C67.3600756,6.41666667 66.3392423,5.83333333 65.1725756,5.25 L64.7350756,0.729166667 C64.7350756,0.291666667 64.2975756,0 63.8600756,0 L56.7142423,0 C56.2767423,0 55.8392423,0.291666667 55.8392423,0.729166667 L55.4017423,5.25 C54.2350756,5.6875 53.2142423,6.27083333 52.1934089,7.14583333 L47.9642423,5.25 C47.5267423,5.10416667 47.0892423,5.25 46.7975756,5.54166667 L43.1517423,11.8125 C42.8600756,12.25 43.0059089,12.6875 43.4434089,12.9791667 L47.0892423,15.6041667 C47.3809089,16.3333333 47.3809089,16.9166667 47.3809089,17.5 C47.3809089,18.0833333 47.3809089,18.6666667 47.5267423,19.3958333 L43.8809089,22.0208333 C43.4434089,22.3125 43.4434089,22.75 43.5892423,23.1875 L47.2350756,29.4583333 C47.5267423,29.8958333 47.9642423,30.0416667 48.4017423,29.75 L52.6309089,27.8541667 C53.6517423,28.5833333 54.6725756,29.1666667 55.8392423,29.75 L56.2767423,34.2708333 C56.2767423,34.7083333 56.7142423,35 57.1517423,35 L64.2975756,35 C64.7350756,35 65.1725756,34.7083333 65.1725756,34.2708333 L65.6100756,29.75 C66.7767423,29.3125 67.7975756,28.7291667 68.8184089,27.8541667 L73.0475756,29.75 C73.4850756,29.8958333 73.9225756,29.75 74.2142423,29.4583333 L77.8600756,23.1875 C78.1517423,22.75 78.0059089,22.3125 77.5684089,22.0208333 L73.4850756,19.3958333 Z M60.5059089,24.7916667 C56.4225756,24.7916667 53.2142423,21.5833333 53.2142423,17.5 C53.2142423,13.4166667 56.4225756,10.2083333 60.5059089,10.2083333 C64.5892423,10.2083333 67.7975756,13.4166667 67.7975756,17.5 C67.7975756,21.5833333 64.5892423,24.7916667 60.5059089,24.7916667 Z" id="path-1"></path>
        <filter x="-14.3%" y="-8.6%" width="128.6%" height="128.6%" filterUnits="objectBoundingBox" id="filter-2">
            <feMorphology radius="1" operator="dilate" in="SourceAlpha" result="shadowSpreadOuter1"></feMorphology>
            <feOffset dx="0" dy="2" in="shadowSpreadOuter1" result="shadowOffsetOuter1"></feOffset>
            <feGaussianBlur stdDeviation="1" in="shadowOffsetOuter1" result="shadowBlurOuter1"></feGaussianBlur>
            <feComposite in="shadowBlurOuter1" in2="SourceAlpha" operator="out" result="shadowBlurOuter1"></feComposite>
            <feColorMatrix values="0 0 0 0 0   0 0 0 0 0   0 0 0 0 0  0 0 0 0.25 0" type="matrix" in="shadowBlurOuter1"></feColorMatrix>
        </filter>
        <path d="M54.576437,26.3725933 C54.576437,25.7455061 54.4483224,25.1534818 54.252779,24.5924748 L27.6049436,43.904064 L0.958456724,24.5924748 C0.761564822,25.1534818 0.633450228,25.7468547 0.633450228,26.3725933 L0.633450228,27.6874536 L27.6049436,47.2350434 L54.576437,27.6874536 L54.576437,26.3725933 Z" id="path-3"></path>
        <filter x="-7.4%" y="-26.5%" width="114.8%" height="135.3%" filterUnits="objectBoundingBox" id="filter-4">
            <feOffset dx="0" dy="-2" in="SourceAlpha" result="shadowOffsetOuter1"></feOffset>
            <feGaussianBlur stdDeviation="1" in="shadowOffsetOuter1" result="shadowBlurOuter1"></feGaussianBlur>
            <feColorMatrix values="0 0 0 0 0.563545308   0 0 0 0 0.565065849   0 0 0 0 0.56810693  0 0 0 0.309980752 0" type="matrix" in="shadowBlurOuter1"></feColorMatrix>
        </filter>
    </defs>
    <g id="Website" stroke="none" stroke-width="1" fill="none" fill-rule="evenodd">
        <g id="Landingpage" transform="translate(-386.000000, -763.000000)">
            <g id="promo-automated-outreach-icon" transform="translate(384.000000, 764.000000)">
                <g id="promo-personalized-outreach">
                    <g id="Shape">
                        <use fill="black" fill-opacity="1" filter="url(#filter-2)" xlink:href="#path-1"></use>
                        <use stroke="#727B89" stroke-width="2" fill="#C0D3DD" fill-rule="evenodd" xlink:href="#path-1"></use>
                    </g>
                    <g id="message" transform="translate(32.362513, 34.972543) rotate(-10.000000) translate(-32.362513, -34.972543) translate(4.862513, 5.472543)">
                        <g id="Слой_1" transform="translate(-0.000000, -0.000000)">
                            <path d="M27.3448706,0.38781581 C33.1016008,1.40288266 51.8863187,24.2474324 51.8863187,24.2474324 L2.1569998,24.4853746 C2.1569998,24.4853746 21.5881404,-0.627251039 27.3448706,0.38781581 Z" id="Triangle" stroke="#DCDEE0" stroke-width="2" fill="#E9ECF0"></path>
                            <path d="M-4.43001191e-12,26.3942987 L-4.43001191e-12,53.365792 C-4.43001191e-12,56.3447935 2.41529723,58.7600907 5.39429867,58.7600907 L48.5486881,58.7600907 C51.5276895,58.7600907 53.9429867,56.3447935 53.9429867,53.365792 L53.9429867,26.3942987 C53.9429867,23.4152972 -4.43001191e-12,23.4152972 -4.43001191e-12,26.3942987 Z" id="Shape" fill="#E9EDF0"></path>
                            <g id="Group-5" transform="translate(17.258648, 10.629943)">
                                <polyline id="Fill-684" fill="#FFB288" points="3.31266326 4.96508181 20.2608943 4.91857844 20.2608943 26.3491351 15.313535 29.3658542 3.31266326 23.5079287 3.31266326 4.96508181"></polyline>
                                <path d="M6.78241529,7.8752932 L0.312445333,6.4186874 L0.312445333,14.370765 C1.05799949,14.2177539 1.88155931,14.3677648 2.54010714,14.7727942 C3.53917971,15.3908391 4.17822613,16.490419 4.46924727,17.6365022 C4.66426144,18.404558 4.71376503,19.1981157 4.7077646,19.9946735 L6.78241529,19.9946735 L6.78241529,7.8752932" id="Fill-685" fill="#1B2A49"></path>
                                <polyline id="Fill-686" fill="#E59C78" points="3.31266326 4.96508181 20.2608943 4.91857844 20.2608943 26.3491351 15.313535 29.3658542 3.31266326 23.5079287 3.31266326 4.96508181"></polyline>
                                <path d="M0.312445333,6.51169416 L17.5486973,10.5199853 C21.3319721,11.5175578 23.9466621,7.58877239 22.6580685,3.89400401 L9.00857699,0.418251546 L0.312445333,6.51169416" id="Fill-687" fill="#231F1F"></path>
                                <polygon id="Fill-688" fill="#FFB288" points="6.31288119 33.2601371 14.8304999 33.2601371 14.8304999 24.419995 6.31288119 24.419995"></polygon>
                                <path d="M6.78241529,7.8752932 L0.312445333,6.4186874 L0.312445333,14.370765 C1.05799949,14.2177539 1.88155931,14.3677648 2.54010714,14.7727942 C3.53917971,15.3908391 4.17822613,16.490419 4.46924727,17.6365022 C4.66426144,18.404558 4.71376503,19.1981157 4.7077646,19.9946735 L6.78241529,19.9946735 L6.78241529,7.8752932" id="Fill-689" fill="#595B5E"></path>
                                <path d="M19.1283121,16.6569311 L19.0548067,16.6569311 C18.645277,16.6569311 18.3137529,16.325407 18.3137529,15.9158772 L18.3137529,14.660286 C18.3137529,14.2507563 18.645277,13.9192322 19.0548067,13.9192322 L19.1283121,13.9192322 C19.5363417,13.9192322 19.8678658,14.2507563 19.8678658,14.660286 L19.8678658,15.9158772 C19.8678658,16.325407 19.5363417,16.6569311 19.1283121,16.6569311" id="Fill-690" fill="#1B2A49"></path>
                                <path d="M11.6277672,16.6569311 L11.5542619,16.6569311 C11.1447322,16.6569311 10.8132081,16.325407 10.8132081,15.9158772 L10.8132081,14.660286 C10.8132081,14.2507563 11.1447322,13.9192322 11.5542619,13.9192322 L11.6277672,13.9192322 C12.0357969,13.9192322 12.367321,14.2507563 12.367321,14.660286 L12.367321,15.9158772 C12.367321,16.325407 12.0357969,16.6569311 11.6277672,16.6569311" id="Fill-692" fill="#1B2A49"></path>
                                <path d="M6.63540461,17.1114641 C6.63540461,18.8755922 5.22080186,20.303696 3.47467503,20.303696 C1.72854819,20.303696 0.312445333,18.8755922 0.312445333,17.1114641 C0.312445333,15.3488361 1.72854819,13.9192322 3.47467503,13.9192322 C5.22080186,13.9192322 6.63540461,15.3488361 6.63540461,17.1114641" id="Fill-694" fill="#E59C78"></path>
                                <path d="M16.7656404,20.7111529 C16.7431388,20.7321545 16.5301233,21.6172187 15.0045125,21.4402059 C14.501976,21.3817016 14.129949,21.0141749 13.9004323,20.6106456 C11.2857424,20.9676716 10.2521673,23.2118346 10.2521673,23.2118346 L3.50048839,20.4591372 L2.97961924,23.413133 L15.3705391,29.950324 L20.3419002,26.4745716 L20.3419002,22.1977609 L19.1118109,23.2118346 C18.7772866,21.8932388 16.7911423,20.6871512 16.7656404,20.7111529 Z" id="Fill-695" fill="#231F1F"></path>
                                <path d="M10.8132081,22.919886 C10.8747125,23.1419021 16.2901059,28.8663179 18.2282467,22.919886 L10.8132081,22.919886" id="Fill-696" fill="#FFFFFF"></path>
                            </g>
                            <g id="Shape">
                                <use fill="black" fill-opacity="1" filter="url(#filter-4)" xlink:href="#path-3"></use>
                                <use fill="#DCDDDF" fill-rule="evenodd" xlink:href="#path-3"></use>
                            </g>
                        </g>
                    </g>
                </g>
            </g>
        </g>
    </g>
</svg>