<?xml version="1.0" encoding="UTF-8"?>
<svg width="88px" height="66px" viewBox="0 0 88 66" version="1.1" xmlns="http://www.w3.org/2000/svg" xmlns:xlink="http://www.w3.org/1999/xlink">
    <!-- Generator: Sketch 43.2 (39069) - http://www.bohemiancoding.com/sketch -->
    <title>promo-we-find-prospects-icon</title>
    <desc>Created with Sketch.</desc>
    <defs>
        <path d="M25.647808,50.085537 C38.6213424,49.2690283 51.0934002,39.6804678 50.1106994,25.6333271 C49.1279985,11.5861864 37.4243738,-0.617731126 23.4035396,0.362273015 C9.38270532,1.34227716 -0.719877493,12.8002421 0.238057816,26.4933737 C1.19599313,40.1865052 12.6742735,50.9020456 25.647808,50.085537 Z" id="path-1"></path>
        <filter x="-6.0%" y="-4.7%" width="113.4%" height="118.6%" filterUnits="objectBoundingBox" id="filter-3">
            <feOffset dx="0" dy="2" in="SourceAlpha" result="shadowOffsetOuter1"></feOffset>
            <feGaussianBlur stdDeviation="1" in="shadowOffsetOuter1" result="shadowBlurOuter1"></feGaussianBlur>
            <feColorMatrix values="0 0 0 0 0   0 0 0 0 0   0 0 0 0 0  0 0 0 0.25 0" type="matrix" in="shadowBlurOuter1" result="shadowMatrixOuter1"></feColorMatrix>
            <feMerge>
                <feMergeNode in="shadowMatrixOuter1"></feMergeNode>
                <feMergeNode in="SourceGraphic"></feMergeNode>
            </feMerge>
        </filter>
    </defs>
    <g id="Website" stroke="none" stroke-width="1" fill="none" fill-rule="evenodd">
        <g id="Landingpage" transform="translate(-60.000000, -770.000000)">
            <g id="promo-we-find-prospects-icon" transform="translate(60.000000, 770.000000)">
                <g id="Group-2" transform="translate(27.000000, 27.000000) rotate(-360.000000) translate(-27.000000, -27.000000) ">
                    <g id="Group-Copy" transform="translate(1.650273, 1.649020)">
                        <mask id="mask-2" fill="white">
                            <use xlink:href="#path-1"></use>
                        </mask>
                        <use id="Mask" fill="#E9EDF0" xlink:href="#path-1"></use>
                        <g id="Group-6" mask="url(#mask-2)">
                            <g transform="translate(-3.527073, 8.392994)">
                                <path d="M56.6099837,53.2977464 C50.8280561,53.2761591 46.3371337,51.5251883 43.3387861,48.0460333 C37.7164344,41.513473 38.7110843,30.8805229 38.7326811,30.6646498 C38.892257,29.1511394 37.9036062,27.7815444 36.5190151,27.6028494 C35.1488218,27.4253538 33.8782135,28.5071179 33.7174378,30.0242262 C33.6586466,30.563909 32.3796396,43.3352022 39.6349449,51.7998269 C43.6399406,56.4698819 49.3510789,58.8384897 56.6315804,58.8648742 C56.9843272,57.0191591 56.9675297,55.1746432 56.6099837,53.2977464" id="Fill-895" fill="#FFB288"></path>
                                <path d="M62.9952951,53.9358974 L58.0880355,54.8113828 C58.4575798,54.6099013 59.0070969,54.2501127 59.2554594,53.7787898 C59.2554594,53.7787898 59.9909484,52.9908529 59.0022976,52.7689833 L56.017148,54.1961445 L54.9625071,55.2107481 L53.9918536,59.2044007 L54.1886239,59.2427781 C54.3745958,59.278757 54.5629674,59.3099387 54.7501392,59.3411203 C55.3572476,59.4382632 55.9667556,59.5150181 56.5750638,59.5653885 C57.9728529,59.6817201 59.4138355,59.6337483 60.7168389,59.1636247 C61.3275467,58.9429544 61.9526524,58.6275398 62.4541768,58.1778041 C62.7025393,57.9559345 62.9533014,57.6800967 63.0528864,57.3227067 C63.1824669,56.8597788 62.910108,56.5011896 62.910108,56.0382617 C62.9089081,55.8919477 63.0960799,55.7888083 63.1656694,55.6892668 C63.3024488,55.4901839 63.2484569,55.181965 63.3312444,54.9552982 C63.4056332,54.7502188 63.606003,54.5835168 63.5316142,54.3112768 C63.4728231,54.0990016 63.1860663,53.8999186 62.9952951,53.9358974" id="Fill-896" fill="#FFB288"></path>
                                <path d="M38.7322255,30.6646498 C38.8918014,29.1511394 37.9019507,27.7815444 36.5185595,27.6028494 C35.1471664,27.4253538 33.8777579,28.5071179 33.7157824,30.0242262 C33.6797878,30.3564309 33.1854624,35.3203132 34.4968645,41.0601395 L39.4629152,39.9735781 C38.3146885,35.1476148 38.7178276,30.8013694 38.7322255,30.6646498" id="Fill-897" fill="#4A4A4B"></path>
                                <polyline id="Fill-915" fill="#4A4A4B" points="37.1931882 64.7619341 17.3981945 64.7619341 16.7958373 27.7234197 26.2295671 26.3844917 31.4071993 26.3844917 37.1931882 27.7234197 37.1931882 64.7619341"></polyline>
                                <path d="M23.9963794,26.6627281 L25.9424857,26.3844917 L31.1197046,26.3844917 L33.0214176,26.8270315 C33.0214176,26.8270315 33.7713045,31.6745822 28.6672746,31.7513371 C28.6672746,31.7513371 24.6610791,31.9995912 23.9963794,26.6627281" id="Fill-916" fill="#F9AE79"></path>
                                <path d="M23.9963794,26.6627281 L25.9424857,26.3844917 L31.1197046,26.3844917 L33.0214176,26.8270315 C33.0214176,26.8270315 33.7713045,31.6745822 28.6672746,31.7513371 C28.6672746,31.7513371 24.6610791,31.9995912 23.9963794,26.6627281" id="Fill-917" fill="#4A4A4B"></path>
                                <path d="M19.9049967,5.46518766 L22.0154782,5.2121364 C21.9650859,4.77199511 21.8139087,4.34024888 21.5847432,3.97326459 C21.0592225,3.13135944 20.1713565,2.54610345 19.1971035,2.39859015 C19.9313927,3.32324665 20.0441757,4.36663337 19.9049967,5.46518766" id="Fill-918" fill="#4A4A4B"></path>
                                <path d="M39.6621529,2.88916528 C38.7610889,2.36147544 37.6488567,2.25233959 36.672204,2.59653728 C35.7543425,2.91914765 34.9240678,3.71667888 34.8052857,4.73008322 C34.7344964,5.33812582 35.0248526,6.12846128 35.5431744,6.44867306 C36.5078288,7.04592201 36.3266562,6.45466954 36.6758035,5.72789672 C37.3297048,4.36669681 38.1563801,3.22976508 39.6621529,2.88916528" id="Fill-919" fill="#4A4A4B"></path>
                                <path d="M39.4527962,1.50871155 C38.5073389,1.08296179 37.3903074,1.09735333 36.4508492,1.54708899 C35.5677824,1.96924085 34.8178956,2.85432062 34.795099,3.87612002 C34.781901,4.48776051 35.1442463,5.24211712 35.6913638,5.50356344 C36.7064106,5.99047724 36.4712461,5.42321067 36.7496041,4.6616583 C37.2715253,3.23569645 37.9866174,2.01361477 39.4527962,1.50871155" id="Fill-920" fill="#4A4A4B"></path>
                                <polyline id="Fill-921" fill="#4A4A4B" points="22.7965604 3.63506337 36.3605138 3.59788523 36.3605138 20.5763056 32.4011112 23.4738025 22.7965604 18.3252288 22.7965604 3.63506337"></polyline>
                                <path d="M20.3969225,4.64815931 L36.3365175,8.21726146 L38.3858083,3.25817632 L31.8359965,0.589744775 C29.0836118,-0.530396825 25.9352868,-0.0314900738 23.6652293,1.88738205 L20.3969225,4.64815931" id="Fill-922" fill="#4A4A4B"></path>
                                <polygon id="Fill-923" fill="#4A4A4B" points="25.1961983 27.7336986 29.8658938 27.7336986 29.8658938 17.9894261 25.1961983 17.9894261"></polygon>
                                <path d="M25.5753411,5.95090217 L20.3969225,4.7971803 L20.3969225,11.0982766 C20.9944323,10.9771478 21.6543327,11.0946787 22.1798534,11.4172891 C22.9801327,11.9066015 23.4912556,12.7760904 23.7240205,13.6851561 C23.8799969,14.2931987 23.919591,14.9228286 23.9147917,15.5524585 L25.5753411,15.5524585 L25.5753411,5.95090217" id="Fill-924" fill="#4A4A4B"></path>
                                <path d="M24.2279845,13.3877697 C24.1859909,14.7753541 23.0245661,15.8655134 21.6351757,15.8223387 C20.2457854,15.7791641 19.1551499,14.6194458 19.1983434,13.2306621 C19.2415369,11.8430777 20.4029617,10.7517192 21.7911522,10.7948938 C23.1805426,10.8380684 24.2723778,11.998986 24.2279845,13.3877697" id="Fill-925" fill="#4A4A4B"></path>
                                <path d="M33.9884717,26.8390245 C33.5913317,26.7550738 33.1917919,26.6963084 32.793452,26.6351443 C32.8654412,27.3187425 33.1018055,31.3819542 28.426111,31.4515134 C28.426111,31.4515134 24.4319137,31.6973688 23.7588152,26.3844917 C23.0317249,26.4888303 22.3082341,26.5919697 21.5967414,26.7059027 C23.0557213,33.7589571 28.2245414,33.4687277 28.2245414,33.4687277 C33.6909166,33.3787805 34.609978,29.2532055 34.7047637,26.9829399 C34.4659997,26.9349681 34.2272357,26.8893949 33.9884717,26.8390245" id="Fill-937" fill="#4A4A4B"></path>
                                <path d="M32.3111248,56.2937116 L25.1662029,56.2937116 C23.8584002,56.2937116 22.7965604,55.2335347 22.7965604,53.9251038 L22.7965604,38.3462607 C22.7965604,37.0390291 23.8572004,35.9788523 25.1662029,35.9788523 L32.3111248,35.9788523 C33.6201273,35.9788523 34.6807673,37.0390291 34.6807673,38.3462607 L34.6807673,53.9251038 C34.6807673,55.2335347 33.6201273,56.2937116 32.3111248,56.2937116" id="Fill-938" fill="#4A4A4B"></path>
                                <path d="M17.0974203,27.9747569 C15.8904024,27.0740863 14.3378367,27.5873846 13.6275438,29.1176851 C13.4643685,29.4690786 11.0827278,35.0593065 9.59855175,42.4193804 L14.5837996,43.726612 C15.8916022,37.3679496 17.9636896,32.4553233 17.9972845,32.380967 C18.7075774,30.8494672 18.3044382,28.8754275 17.0974203,27.9747569 Z" id="Fill-949" fill="#4A4A4B"></path>
                            </g>
                        </g>
                    </g>
                    <ellipse id="Oval" stroke="#90A4AE" stroke-width="4" cx="26.5512022" cy="26.5396088" rx="24.5512022" ry="24.5396088"></ellipse>
                </g>
                <g id="binoculars" filter="url(#filter-3)" transform="translate(19.000000, 20.000000)">
                    <g id="Layer_1">
                        <g id="Group" fill="#37474F">
                            <ellipse id="Oval" cx="46.0625" cy="8.4" rx="8.375" ry="8.4"></ellipse>
                            <ellipse id="Oval" cx="20.9375" cy="8.4" rx="8.375" ry="8.4"></ellipse>
                            <g transform="translate(0.000000, 5.600000)">
                                <path d="M65.1854167,15.4 L43.8291667,19.6 L23.3104167,19.6 L1.95416667,15.4 L7.95625,4.34 C9.49166667,1.68 12.2833333,0 15.3541667,0 L51.925,0 C54.9958333,0 57.7875,1.68 59.3229167,4.34 L65.1854167,15.4 Z" id="Shape"></path>
                                <ellipse id="Oval" cx="53.0416667" cy="22.4" rx="13.9583333" ry="14"></ellipse>
                                <ellipse id="Oval" cx="13.9583333" cy="22.4" rx="13.9583333" ry="14"></ellipse>
                                <ellipse id="Oval" cx="33.5" cy="19.6" rx="6.97916667" ry="7"></ellipse>
                            </g>
                        </g>
                        <ellipse id="Oval" fill="#546E7A" cx="33.5" cy="25.2" rx="2.79166667" ry="2.8"></ellipse>
                        <g id="Group" transform="translate(4.187500, 18.200000)" fill="#26B89A">
                            <ellipse id="Oval" cx="48.8541667" cy="9.8" rx="9.77083333" ry="9.8"></ellipse>
                            <ellipse id="Oval" cx="9.77083333" cy="9.8" rx="9.77083333" ry="9.8"></ellipse>
                        </g>
                        <g id="Group" transform="translate(8.375000, 22.400000)" fill="#FFFFFF">
                            <path d="M49.83125,2.38 C48.4354167,0.84 46.6208333,0 44.6666667,0 C42.7125,0 40.7583333,0.84 39.5020833,2.38 C38.94375,2.94 39.0833333,3.78 39.6416667,4.34 C40.2,4.9 41.0375,4.76 41.5958333,4.2 C43.2708333,2.38 46.2020833,2.38 47.8770833,4.2 C48.15625,4.48 48.575,4.62 48.8541667,4.62 C49.1333333,4.62 49.5520833,4.48 49.83125,4.2 C50.3895833,3.78 50.3895833,2.94 49.83125,2.38 Z" id="Shape"></path>
                            <path d="M5.58333333,0 C3.62916667,0 1.675,0.84 0.41875,2.38 C-0.139583333,2.94 -1.48644985e-13,3.78 0.558333333,4.34 C1.11666667,4.9 1.95416667,4.76 2.5125,4.2 C4.1875,2.38 7.11875,2.38 8.79375,4.2 C9.07291667,4.48 9.49166667,4.62 9.77083333,4.62 C10.05,4.62 10.46875,4.48 10.7479167,4.2 C11.30625,3.64 11.30625,2.8 10.8875,2.24 C9.49166667,0.84 7.5375,0 5.58333333,0 Z" id="Shape"></path>
                        </g>
                    </g>
                </g>
            </g>
        </g>
    </g>
</svg>